<svg width="42" height="42" viewBox="0 0 42 42" fill="none" xmlns="http://www.w3.org/2000/svg">
<path d="M21.1778 41.1778C32.2235 41.1778 41.1778 32.2235 41.1778 21.1778C41.1778 10.1321 32.2235 1.17776 21.1778 1.17776C10.1321 1.17776 1.1778 10.1321 1.1778 21.1778C1.1778 32.2235 10.1321 41.1778 21.1778 41.1778Z" fill="white"/>
<path d="M33.4267 27.2347C32.6376 27.9343 31.6631 28.3911 30.6205 28.55C29.578 28.709 28.5117 28.5633 27.5499 28.1307C26.5881 27.698 25.7718 26.9967 25.1991 26.1111C24.6264 25.2255 24.3218 24.1934 24.3218 23.1387V18.7609V23.1387V18.7609C24.3218 17.7063 24.6264 16.6741 25.1991 15.7886C25.7718 14.903 26.5881 14.2017 27.5499 13.769C28.5117 13.3363 29.578 13.1907 30.6205 13.3497C31.6631 13.5086 32.6376 13.9654 33.4267 14.665" stroke="black" stroke-width="1.46" stroke-miterlimit="10" stroke-linecap="round" stroke-linejoin="round"/>
<path d="M18.0144 27.692C17.2252 28.3916 16.2508 28.8483 15.2082 29.0073C14.1656 29.1662 13.0993 29.0206 12.1375 28.588C11.1757 28.1553 10.3594 27.454 9.78675 26.5684C9.21407 25.6828 8.90942 24.6506 8.90942 23.596V19.2182V23.596V19.2182C8.90942 18.1636 9.21407 17.1314 9.78675 16.2458C10.3594 15.3602 11.1757 14.6589 12.1375 14.2263C13.0993 13.7936 14.1656 13.648 15.2082 13.8069C16.2508 13.9659 17.2252 14.4226 18.0144 15.1223" stroke="black" stroke-width="1.46" stroke-miterlimit="10" stroke-linecap="round" stroke-linejoin="round"/>
<path d="M21.1778 41.1778C32.2235 41.1778 41.1778 32.2235 41.1778 21.1778C41.1778 10.1321 32.2235 1.17776 21.1778 1.17776C10.1321 1.17776 1.1778 10.1321 1.1778 21.1778C1.1778 32.2235 10.1321 41.1778 21.1778 41.1778Z" stroke="black" stroke-width="1.185" stroke-linecap="round" stroke-linejoin="round"/>
</svg>
