<svg width="33" height="42" viewBox="0 0 33 42" fill="none" xmlns="http://www.w3.org/2000/svg">
<path d="M16.4799 41.8939L3.05019 38.529L0.057373 8.23318H32.9426L29.9467 38.5244L16.4799 41.8939Z" fill="#161211"/>
<path d="M27.3819 36.5955L29.942 10.7102H16.5V39.3183L27.3819 36.5955Z" fill="#2E2928"/>
<path d="M6.91827 21.9466L7.2872 25.6623H16.5V21.9466H6.91827Z" fill="#EBEBEB"/>
<path d="M6.17682 14.426L6.55103 18.1417H16.5V14.426H6.17682Z" fill="#EBEBEB"/>
<path d="M16.5 31.5966L16.4819 31.6009L11.897 30.4835L11.6039 27.5201H7.47113L8.04786 33.3543L16.481 35.4671L16.5 35.4624V31.5966Z" fill="#EBEBEB"/>
<path d="M7.79675 0H12.7828V1.88197H9.88194V3.76394H12.7831V5.6458H7.79675V0Z" fill="black"/>
<path d="M13.7802 0H18.7664V1.63649H15.8653V1.96376H18.7664V5.72771H13.7803V4.0092H16.6813V3.68192H13.78V0H13.7802Z" fill="black"/>
<path d="M19.7638 0H24.75V1.63649H21.849V1.96376H24.75V5.72771H19.7638V4.0092H22.6648V3.68192H19.7639V0H19.7638Z" fill="black"/>
<path d="M26.0555 21.9466L26.7986 14.426H16.4858V18.1417H22.2869L21.9123 21.9466H16.4858V25.6622H21.5553L21.0774 30.4812L16.4857 31.5997V35.4654L24.9256 33.3543L24.9875 32.7265L25.955 22.9443L26.0555 21.9466Z" fill="white"/>
</svg>
