<svg width="40" height="40" viewBox="0 0 40 40" fill="none" xmlns="http://www.w3.org/2000/svg">
<ellipse cx="20" cy="21.0157" rx="20" ry="18.9844" fill="white"/>
<path d="M20 0.00126561C8.95125 0.00126561 0 9.07199 0 20.2512C0 29.203 5.73 36.7904 13.6713 39.4672C14.675 39.6583 15.0375 39.0318 15.0375 38.4901C15.0375 38.0092 15.0263 36.7373 15.0188 35.0489C9.4525 36.269 8.28 32.3266 8.28 32.3266C7.36875 29.9927 6.05375 29.3663 6.05375 29.3663C4.24375 28.1146 6.1975 28.1411 6.1975 28.1411C8.2025 28.2791 9.2575 30.2231 9.2575 30.2231C11.0413 33.3213 13.9375 32.4253 15.0838 31.9038C15.2588 30.599 15.78 29.7017 16.3475 29.2017C11.9075 28.6942 7.23875 26.954 7.23875 19.1944C7.23875 16.9783 8.01375 15.1736 9.295 13.7561C9.07375 13.2485 8.39625 11.1856 9.47125 8.39615C9.47125 8.39615 11.145 7.85572 14.9713 10.473C16.6011 10.0242 18.2822 9.794 19.9713 9.78833C21.6713 9.79972 23.37 10.025 24.9712 10.473C28.775 7.85572 30.4475 8.39615 30.4475 8.39615C31.5212 11.1856 30.8437 13.2473 30.6487 13.7561C31.9175 15.1736 32.6925 16.9796 32.6925 19.1944C32.6925 26.9717 28.0175 28.6866 23.5725 29.1815C24.2675 29.7877 24.9187 31.0344 24.9187 32.9265C24.9187 35.6349 24.8938 37.8168 24.8938 38.4762C24.8938 39.0027 25.2437 39.6355 26.2737 39.4318C34.2737 36.7828 39.9975 29.1891 39.9975 20.25C39.9975 9.07072 31.0462 0 19.9975 0L20 0.00126561Z" fill="black"/>
</svg>
