<svg width="80" height="100" viewBox="0 0 80 100" fill="none" xmlns="http://www.w3.org/2000/svg">
<path d="M79.8609 19.6028L72.5981 91.7246L39.9512 99.7474L7.39435 91.7357L0.139038 19.6028H79.8609Z" fill="#161211"/>
<path d="M40 93.615L66.3803 87.1321L72.5866 25.5005H40V93.615Z" fill="#2E2928"/>
<path d="M25.8812 43.1945H40V34.3477H14.9741L15.2128 36.7211L17.6659 61.1006H40V52.2538H26.7934L25.8812 43.1945V43.1945Z" fill="#EBEBEB"/>
<path d="M28.1306 65.5241H18.1119L19.51 79.415L39.9541 84.4454L40 84.4344V75.2299L39.9563 75.2402L28.8413 72.5798L28.1306 65.5241V65.5241Z" fill="#EBEBEB"/>
<path d="M7.55627 0H12.6282V4.44183H17.2678V0H22.34V13.451H17.2682V8.94681H12.6285V13.451H7.55659V0H7.55627Z" fill="black"/>
<path d="M29.0094 4.46066H24.545V0H38.5494V4.46066H34.0822V13.451H29.0103V4.46066H29.01H29.0094Z" fill="black"/>
<path d="M40.7719 0H46.0603L49.3134 4.72632L52.5634 0H57.854V13.451H52.8028V6.78393L49.3134 11.5665H49.2259L45.7344 6.78393V13.451H40.7719V0Z" fill="black"/>
<path d="M60.3781 0H65.4516V9.00499H72.5841V13.451H60.3778V0H60.3781Z" fill="black"/>
<path d="M39.9656 61.1006H52.2553L51.0966 72.5742L39.9653 75.2374V84.4413L60.4257 79.415L60.5757 77.9202L62.9213 54.6294L63.1647 52.2538H39.9656V61.1006Z" fill="white"/>
<path d="M39.9656 43.1729V43.1945H64.0728L64.2728 41.2061L64.7278 36.7211L64.9663 34.3477H39.9656V43.1731V43.1729Z" fill="white"/>
</svg>
